<?xml version="1.0" encoding="utf-8"?>
<?xml-stylesheet type="text/xsl" href="rss1.xsl"?>
<rss version="2.0" xmlns:atom="http://www.w3.org/2005/Atom" xmlns:content="http://purl.org/rss/1.0/modules/content/" xmlns:dc="http://purl.org/dc/elements/1.1/" xmlns:media="http://search.yahoo.com/mrss/">
<channel>
 <title>Getty</title>
 <link>http://www.gettyimg.com/</link>
 <atom:link href="http://www.gettyimg.com/" rel="self" type="application/rss+xml" />

 
                <item>
                <title><![CDATA[【Requests】[REQ AUD] - R.E.M. - Murmur (Dolby Atmos)]]></title>
                <link><![CDATA[https://sharemania.us/threads/r-e-m-murmur-dolby-atmos.250373/]]></link>
                <description><![CDATA[<article>
<blockquote class="messageText SelectQuoteContainer ugc baseHtml">
Does anyone have this? Can anyone rip this? Thanks.
<div class="messageTextEndMarker">&nbsp;</div>
</blockquote>
</article>]]></description>
                <author><![CDATA[fulgericul]]></author>
                </item>

                
                <item>
                <title><![CDATA[【Albums (lossless)】FLAC - SCANDAL - LUMINOUS [Amazon Music 16bits/44.1kHz]]]></title>
                <link><![CDATA[https://sharemania.us/threads/scandal-luminous-amazon-music-16bits-44-1khz.250372/]]></link>
                <description><![CDATA[<article>
<blockquote class="messageText SelectQuoteContainer ugc baseHtml">
<img src="https://encrypted-tbn0.gstatic.com/images?q=tbn:ANd9GcSm62TwdsfeyreHcc3FFzwaEbStNJt0UwbSI_lU3gWjChayg7BrutEg0FL9&amp;s=10" class="bbCodeImage LbImage" alt="[​IMG]" data-url="https://encrypted-tbn0.gstatic.com/images?q=tbn:ANd9GcSm62TwdsfeyreHcc3FFzwaEbStNJt0UwbSI_lU3gWjChayg7BrutEg0FL9&amp;s=10" style=""> <br>
<span style="font-size: 22px"><b>LUMINOUS</b><br>
<b>Scandal</b></span><br>
<ul>
<li>Released on 3/20/24 by <a href="https://www.qobuz.com/us-en/label/jpu-records-ltd/download-streaming-albums/162897" target="_blank" class="externalLink" rel="nofollow">JPU Records Ltd.</a></li>
<li>Main artists: <a href="https://www.qobuz.com/us-en/interpreter/scandal/154595" target="_blank" class="externalLink" rel="nofollow">Scandal</a></li>
<li>Genre: <a href="https://www.qobuz.com/us-en/genre/rock/download-streaming-albums" target="_blank" class="externalLink" rel="nofollow">Rock</a></li>
</ul><b><span style="color: #ff0000">DOWNLOAD:</span></b><br>
<div class="bbCodeBlock bbCodeVfcHH HiddenContent">
<div class="attribution type">Hidden Content:</div>
<blockquote>You must reply before you can see the hidden data contained here.</blockquote>
</div>
<div class="messageTextEndMarker">&nbsp;</div>
</blockquote>
</article>]]></description>
                <author><![CDATA[olobersykes99]]></author>
                </item>

                
                <item>
                <title><![CDATA[【MTV HD】Black Eyed Peas - Don't Lie - Official Music Video - MHD (MTVHD-1080i)]]></title>
                <link><![CDATA[https://sharemania.us/threads/black-eyed-peas-dont-lie-official-music-video-mhd-mtvhd-1080i.250371/]]></link>
                <description><![CDATA[<article>
<blockquote class="messageText SelectQuoteContainer ugc baseHtml">
General<br>
ID : 1 (0x1)<br>
Complete name : Black.Eyed.Peas.Dont.Lie.HDTV.1080i.ts<br>
Format : MPEG-TS<br>
File size : 467 MiB<br>
Duration : 3 min 42 s<br>
Overall bit rate mode : Variable<br>
Overall bit rate : 17.6 Mb/s<br>
Frame rate : 29.970 FPS<br>
Law rating : TV-PG (L)<br>
<br>
Video<br>
ID : 2048 (0x800)<br>
Menu ID : 1 (0x1)<br>
Format : MPEG Video<br>
Format version : Version 2<br>
Format profile : Main@High<br>
Format settings : CustomMatrix / BVOP<br>
Format settings, BVOP : Yes<br>
Format settings, Matrix : Custom<br>
Format settings, GOP : Variable<br>
Codec ID : 2<br>
Duration : 3 min 42 s<br>
Bit rate mode : Variable<br>
Bit rate : 16.3 Mb/s<br>
Maximum bit rate : 38.8 Mb/s<br>
Width : 1 920 pixels<br>
Height : 1 080 pixels<br>
Display aspect ratio : 16:9<br>
Frame rate : 29.970 (30000/1001) FPS<br>
Standard : Component<br>
Color space : YUV<br>
Chroma subsampling : 4:2:0<br>
Bit depth : 8 bits<br>
Compression mode : Lossy<br>
Bits/(Pixel*Frame) : 0.262<br>
Time code of first frame : 00:00:00:00<br>
Time code source : Group of pictures header<br>
Stream size : 433 MiB (93%)<br>
Color primaries : BT.709<br>
Transfer characteristics : BT.709<br>
Matrix coefficients : BT.709<br>
<br>
Audio<br>
ID : 2049 (0x801)<br>
Menu ID : 1 (0x1)<br>
Format : AC-3<br>
Format/Info : Audio Coding 3<br>
Commercial name : Dolby Digital<br>
Codec ID : 129<br>
Duration : 3 min 42 s<br>
Bit rate mode : Constant<br>
Bit rate : 384 kb/s<br>
Channel(s) : 2 channels<br>
Channel layout : L R<br>
Sampling rate : 48.0 kHz<br>
Frame rate : 31.250 FPS (1536 SPF)<br>
Compression mode : Lossy<br>
Stream size : 10.2 MiB (2%)<br>
Service kind : Complete Main<br>
Dialog Normalization : -27 dB<br>
compr : 0.53 dB<br>
dynrng : 0.53 dB<br>
dsurmod : Not Dolby Surround encoded<br>
dialnorm_Average : -27 dB<br>
dialnorm_Minimum : -27 dB<br>
dialnorm_Maximum : -27 dB<br>
<br>
Text #1<br>
ID : 2048 (0x800)-CC1<br>
Menu ID : 1 (0x1)<br>
Format : EIA-608<br>
Muxing mode : A/53 / DTVCC Transport<br>
Muxing mode, more info : Muxed in Video #1<br>
Duration : 3 min 42 s<br>
Duration of the visible conten : 3 min 36 s<br>
Start time (commands) : 1 s 127 ms<br>
Start time : 1 s 260 ms<br>
End time : 3 min 38 s<br>
Bit rate mode : Constant<br>
Stream size : 0.00 Byte (0%)<br>
<br>
Text #2<br>
ID : 2048 (0x800)-1<br>
Menu ID : 1 (0x1)<br>
Format : EIA-708<br>
Muxing mode : A/53 / DTVCC Transport<br>
Muxing mode, more info : Muxed in Video #1<br>
Duration : 3 min 42 s<br>
Bit rate mode : Constant<br>
Stream size : 0.00 Byte (0%)<br>
<br>
<br>
DOWNLOAD LINK: <a href="https://fastupload.io/7616d7dad90d3a1d" target="_blank" class="externalLink" rel="nofollow">https://fastupload.io/7616d7dad90d3a1d</a><br>
<a href="https://fastupload.io/7616d7dad90d3a1d" target="_blank" class="externalLink" rel="nofollow">https://fastupload.io/7616d7dad90d3a1d</a>
<div class="messageTextEndMarker">&nbsp;</div>
</blockquote>
</article>]]></description>
                <author><![CDATA[rowlinglooni]]></author>
                </item>

                
                <item>
                <title><![CDATA[【Requests】Filled - Did anyone got this album Cherry Blossom, Empire Of The Sun - Qobuz and ‎Nothin' but Blue Skies]]></title>
                <link><![CDATA[https://sharemania.us/threads/did-anyone-got-this-album-cherry-blossom-empire-of-the-sun-qobuz-and-%E2%80%8Enothin-but-blue-skies.250370/]]></link>
                <description><![CDATA[<article>
<blockquote class="messageText SelectQuoteContainer ugc baseHtml">
thanks
<div class="messageTextEndMarker">&nbsp;</div>
</blockquote>
</article>]]></description>
                <author><![CDATA[B097]]></author>
                </item>

                </channel></rss>